<svg width="80" height="27" viewBox="0 0 80 27" fill="none" xmlns="http://www.w3.org/2000/svg">
<path d="M0.548 0.176H7.436C8.29467 0.176 9.088 0.278666 9.816 0.483999C10.5627 0.689332 11.1973 0.997332 11.72 1.408C12.2613 1.8 12.6813 2.31333 12.98 2.948C13.2973 3.564 13.456 4.292 13.456 5.132C13.456 6.27067 13.1387 7.204 12.504 7.932C11.8693 8.64133 11.048 9.164 10.04 9.5V9.556C10.6373 9.59333 11.1973 9.752 11.72 10.032C12.2427 10.2933 12.6907 10.648 13.064 11.096C13.456 11.5253 13.764 12.0293 13.988 12.608C14.212 13.1867 14.324 13.812 14.324 14.484C14.324 15.38 14.1373 16.1733 13.764 16.864C13.4093 17.536 12.9147 18.1053 12.28 18.572C11.6453 19.0387 10.908 19.3933 10.068 19.636C9.228 19.8787 8.32267 20 7.352 20H0.548V0.176ZM3.236 8.408H6.904C7.408 8.408 7.884 8.36133 8.332 8.268C8.78 8.156 9.172 7.97867 9.508 7.736C9.844 7.49333 10.1053 7.18533 10.292 6.812C10.4973 6.43867 10.6 5.98133 10.6 5.44C10.6 4.656 10.348 3.97467 9.844 3.396C9.34 2.81733 8.54667 2.528 7.464 2.528H3.236V8.408ZM3.236 17.648H7.184C7.59467 17.648 8.04267 17.6107 8.528 17.536C9.032 17.4427 9.49867 17.2747 9.928 17.032C10.3573 16.7707 10.7213 16.4253 11.02 15.996C11.3187 15.5667 11.468 14.9973 11.468 14.288C11.468 13.112 11.0853 12.2347 10.32 11.656C9.55467 11.0587 8.51867 10.76 7.212 10.76H3.236V17.648ZM19.5847 13.364C19.5847 14.036 19.6874 14.6613 19.8927 15.24C20.0981 15.8 20.3874 16.2853 20.7607 16.696C21.1341 17.088 21.5914 17.4053 22.1327 17.648C22.6741 17.872 23.2807 17.984 23.9527 17.984C24.6247 17.984 25.2314 17.872 25.7727 17.648C26.3141 17.4053 26.7714 17.088 27.1447 16.696C27.5181 16.2853 27.8074 15.8 28.0127 15.24C28.2181 14.6613 28.3207 14.036 28.3207 13.364C28.3207 12.692 28.2181 12.076 28.0127 11.516C27.8074 10.9373 27.5181 10.452 27.1447 10.06C26.7714 9.64933 26.3141 9.332 25.7727 9.108C25.2314 8.86533 24.6247 8.744 23.9527 8.744C23.2807 8.744 22.6741 8.86533 22.1327 9.108C21.5914 9.332 21.1341 9.64933 20.7607 10.06C20.3874 10.452 20.0981 10.9373 19.8927 11.516C19.6874 12.076 19.5847 12.692 19.5847 13.364ZM16.8967 13.364C16.8967 12.3933 17.0741 11.488 17.4287 10.648C17.8021 9.808 18.3061 9.07067 18.9407 8.436C19.5754 7.80133 20.3221 7.30667 21.1807 6.952C22.0394 6.57867 22.9634 6.392 23.9527 6.392C24.9421 6.392 25.8661 6.57867 26.7247 6.952C27.5834 7.30667 28.3301 7.80133 28.9647 8.436C29.5994 9.07067 30.0941 9.808 30.4487 10.648C30.8221 11.488 31.0087 12.3933 31.0087 13.364C31.0087 14.3347 30.8221 15.2493 30.4487 16.108C30.0941 16.948 29.5994 17.6853 28.9647 18.32C28.3301 18.936 27.5834 19.4307 26.7247 19.804C25.8661 20.1587 24.9421 20.336 23.9527 20.336C22.9634 20.336 22.0394 20.1587 21.1807 19.804C20.3221 19.4307 19.5754 18.936 18.9407 18.32C18.3061 17.6853 17.8021 16.948 17.4287 16.108C17.0741 15.2493 16.8967 14.3347 16.8967 13.364ZM41.2777 8.912H37.6657V14.932C37.6657 15.3053 37.6751 15.6787 37.6937 16.052C37.7124 16.4067 37.7777 16.7333 37.8897 17.032C38.0204 17.312 38.2071 17.5453 38.4497 17.732C38.7111 17.9 39.0844 17.984 39.5697 17.984C39.8684 17.984 40.1764 17.956 40.4937 17.9C40.8111 17.844 41.1004 17.7413 41.3617 17.592V19.888C41.0631 20.056 40.6711 20.168 40.1857 20.224C39.7191 20.2987 39.3551 20.336 39.0937 20.336C38.1231 20.336 37.3671 20.2053 36.8257 19.944C36.3031 19.664 35.9111 19.3093 35.6497 18.88C35.4071 18.4507 35.2577 17.9747 35.2017 17.452C35.1644 16.9107 35.1457 16.3693 35.1457 15.828V8.912H32.2337V6.728H35.1457V3.004H37.6657V6.728H41.2777V8.912ZM44.725 6.728H47.245V20H44.725V6.728ZM44.137 1.968C44.137 1.464 44.3143 1.03467 44.669 0.679998C45.0423 0.306665 45.481 0.119999 45.985 0.119999C46.489 0.119999 46.9183 0.306665 47.273 0.679998C47.6463 1.03467 47.833 1.464 47.833 1.968C47.833 2.472 47.6463 2.91067 47.273 3.284C46.9183 3.63867 46.489 3.816 45.985 3.816C45.481 3.816 45.0423 3.63867 44.669 3.284C44.3143 2.91067 44.137 2.472 44.137 1.968ZM64.5556 19.888C64.5556 20.896 64.3782 21.8107 64.0236 22.632C63.6876 23.472 63.2022 24.1907 62.5676 24.788C61.9329 25.404 61.1676 25.88 60.2716 26.216C59.3756 26.552 58.3862 26.72 57.3036 26.72C56.0342 26.72 54.8676 26.5427 53.8036 26.188C52.7582 25.8333 51.7596 25.2173 50.8076 24.34L52.5156 22.212C53.1689 22.9213 53.8782 23.4533 54.6436 23.808C55.4089 24.1813 56.2769 24.368 57.2476 24.368C58.1809 24.368 58.9556 24.228 59.5716 23.948C60.1876 23.6867 60.6729 23.3413 61.0276 22.912C61.4009 22.4827 61.6622 21.988 61.8116 21.428C61.9609 20.8867 62.0356 20.336 62.0356 19.776V17.816H61.9516C61.4662 18.6187 60.8036 19.216 59.9636 19.608C59.1422 19.9813 58.2742 20.168 57.3596 20.168C56.3889 20.168 55.4836 20 54.6436 19.664C53.8222 19.3093 53.1129 18.8333 52.5156 18.236C51.9182 17.62 51.4516 16.9013 51.1156 16.08C50.7796 15.24 50.6116 14.3347 50.6116 13.364C50.6116 12.3933 50.7702 11.488 51.0876 10.648C51.4049 9.78933 51.8529 9.04267 52.4316 8.408C53.0289 7.77333 53.7382 7.27867 54.5596 6.924C55.3996 6.56933 56.3329 6.392 57.3596 6.392C58.2556 6.392 59.1236 6.588 59.9636 6.98C60.8222 7.372 61.4942 7.92267 61.9796 8.632H62.0356V6.728H64.5556V19.888ZM57.6676 8.744C56.9956 8.744 56.3889 8.86533 55.8476 9.108C55.3062 9.332 54.8489 9.64933 54.4756 10.06C54.1022 10.452 53.8129 10.9373 53.6076 11.516C53.4022 12.076 53.2996 12.692 53.2996 13.364C53.2996 14.708 53.6916 15.7907 54.4756 16.612C55.2596 17.4147 56.3236 17.816 57.6676 17.816C59.0116 17.816 60.0756 17.4147 60.8596 16.612C61.6436 15.7907 62.0356 14.708 62.0356 13.364C62.0356 12.692 61.9329 12.076 61.7276 11.516C61.5222 10.9373 61.2329 10.452 60.8596 10.06C60.4862 9.64933 60.0289 9.332 59.4876 9.108C58.9462 8.86533 58.3396 8.744 57.6676 8.744ZM68.4288 8.352C69.1381 7.69867 69.9594 7.21333 70.8928 6.896C71.8261 6.56 72.7594 6.392 73.6928 6.392C74.6634 6.392 75.4941 6.51333 76.1848 6.756C76.8941 6.99867 77.4728 7.32533 77.9208 7.736C78.3688 8.14667 78.6954 8.62267 78.9008 9.164C79.1248 9.68667 79.2368 10.2373 79.2368 10.816V17.592C79.2368 18.0587 79.2461 18.488 79.2648 18.88C79.2834 19.272 79.3114 19.6453 79.3488 20H77.1088C77.0528 19.328 77.0248 18.656 77.0248 17.984H76.9688C76.4088 18.8427 75.7461 19.4493 74.9808 19.804C74.2154 20.1587 73.3288 20.336 72.3208 20.336C71.7048 20.336 71.1168 20.252 70.5568 20.084C69.9968 19.916 69.5021 19.664 69.0728 19.328C68.6621 18.992 68.3354 18.5813 68.0928 18.096C67.8501 17.592 67.7288 17.0133 67.7288 16.36C67.7288 15.5013 67.9154 14.7827 68.2888 14.204C68.6808 13.6253 69.2034 13.1587 69.8568 12.804C70.5288 12.4307 71.3034 12.1693 72.1808 12.02C73.0768 11.852 74.0288 11.768 75.0368 11.768H76.8848V11.208C76.8848 10.872 76.8194 10.536 76.6888 10.2C76.5581 9.864 76.3621 9.56533 76.1008 9.304C75.8394 9.024 75.5128 8.80933 75.1208 8.66C74.7288 8.492 74.2621 8.408 73.7208 8.408C73.2354 8.408 72.8061 8.45467 72.4328 8.548C72.0781 8.64133 71.7514 8.76267 71.4528 8.912C71.1541 9.04267 70.8834 9.20133 70.6408 9.388C70.3981 9.57467 70.1648 9.752 69.9408 9.92L68.4288 8.352ZM75.5408 13.616C74.9434 13.616 74.3274 13.6533 73.6928 13.728C73.0768 13.784 72.5074 13.9053 71.9848 14.092C71.4808 14.2787 71.0608 14.54 70.7248 14.876C70.4074 15.212 70.2488 15.6413 70.2488 16.164C70.2488 16.9293 70.5008 17.48 71.0048 17.816C71.5274 18.152 72.2274 18.32 73.1048 18.32C73.7954 18.32 74.3834 18.208 74.8688 17.984C75.3541 17.7413 75.7461 17.4333 76.0448 17.06C76.3434 16.6867 76.5581 16.276 76.6888 15.828C76.8194 15.3613 76.8848 14.904 76.8848 14.456V13.616H75.5408Z" fill="#252525"/>
</svg>